<svg width="2030" height="597" viewBox="0 0 2030 597" fill="none" xmlns="http://www.w3.org/2000/svg">
<path d="M741.252 501.118V423.698H752.312V501.118H741.252ZM685.73 501.118V423.698H696.79V501.118H685.73ZM695.684 466.611V456.988H742.247V466.611H695.684ZM830.785 501.118V423.698H885.422V433.32H841.845V491.496H886.97V501.118H830.785ZM840.85 466.5V457.099H880.666V466.5H840.85ZM948.455 501.118L983.515 423.698H994.465L1029.64 501.118H1018.02L986.723 429.891H991.147L959.847 501.118H948.455ZM963.386 481.763L966.372 472.915H1009.95L1013.16 481.763H963.386ZM1096.48 501.118V423.698H1107.54V491.496H1149.46V501.118H1096.48ZM1224.4 501.118V433.32H1197.86V423.698H1261.9V433.32H1235.35V501.118H1224.4ZM1384.76 501.118V423.698H1395.82V501.118H1384.76ZM1329.24 501.118V423.698H1340.3V501.118H1329.24ZM1339.2 466.611V456.988H1385.76V466.611H1339.2ZM1574.67 501.118V433.32H1548.13V423.698H1612.17V433.32H1585.62V501.118H1574.67ZM1679.51 501.118V423.698H1734.15V433.32H1690.57V491.496H1735.7V501.118H1679.51ZM1689.58 466.5V457.099H1729.39V466.5H1689.58ZM1843.42 502.003C1837.52 502.003 1832.06 501.044 1827.05 499.127C1822.11 497.136 1817.79 494.371 1814.11 490.832C1810.49 487.219 1807.65 483.016 1805.59 478.224C1803.53 473.431 1802.49 468.159 1802.49 462.408C1802.49 456.657 1803.53 451.385 1805.59 446.592C1807.65 441.799 1810.53 437.633 1814.22 434.094C1817.9 430.481 1822.22 427.716 1827.16 425.799C1832.17 423.808 1837.63 422.813 1843.53 422.813C1849.5 422.813 1854.99 423.845 1860.01 425.91C1865.09 427.901 1869.41 430.887 1872.95 434.868L1865.76 441.836C1862.81 438.739 1859.49 436.454 1855.8 434.979C1852.12 433.431 1848.17 432.656 1843.97 432.656C1839.62 432.656 1835.56 433.394 1831.8 434.868C1828.12 436.343 1824.91 438.408 1822.18 441.062C1819.45 443.716 1817.31 446.887 1815.77 450.574C1814.29 454.187 1813.55 458.131 1813.55 462.408C1813.55 466.684 1814.29 470.666 1815.77 474.353C1817.31 477.966 1819.45 481.099 1822.18 483.754C1824.91 486.408 1828.12 488.473 1831.8 489.947C1835.56 491.422 1839.62 492.159 1843.97 492.159C1848.17 492.159 1852.12 491.422 1855.8 489.947C1859.49 488.399 1862.81 486.039 1865.76 482.869L1872.95 489.837C1869.41 493.818 1865.09 496.841 1860.01 498.906C1854.99 500.97 1849.46 502.003 1843.42 502.003ZM1998.46 501.118V423.698H2009.52V501.118H1998.46ZM1942.94 501.118V423.698H1954V501.118H1942.94ZM1952.9 466.611V456.988H1999.46V466.611H1952.9Z" fill="url(#paint0_linear_2008_2)"/>
<path d="M822.739 297.55H826.036L911.766 99.7125H982.658V330.523H934.847V145.875H931.55L852.414 330.523H796.36L717.225 145.875H713.928V330.523H666.117V99.7125H737.009L822.739 297.55Z" fill="url(#paint1_linear_2008_2)"/>
<path d="M1076.5 124.442V200.28H1196.85V225.01H1076.5V305.794H1229.83V330.523H1028.69V99.7125H1229.83V124.442H1076.5Z" fill="url(#paint2_linear_2008_2)"/>
<path d="M1371.6 99.7125C1391.38 99.7125 1409.3 102.24 1425.34 107.296C1441.61 112.132 1455.46 119.386 1466.89 129.058C1478.54 138.731 1487.55 150.821 1493.93 165.329C1500.3 179.617 1503.49 196.213 1503.49 215.118C1503.49 234.022 1500.3 250.729 1493.93 265.237C1487.55 279.525 1478.54 291.505 1466.89 301.177C1455.46 310.849 1441.61 318.213 1425.34 323.269C1409.3 328.105 1391.38 330.523 1371.6 330.523H1262.79V99.7125H1371.6ZM1310.6 124.442V305.794H1371.6C1382.81 305.794 1393.25 304.145 1402.92 300.848C1412.81 297.331 1421.39 291.945 1428.64 284.691C1435.89 277.217 1441.61 267.765 1445.79 256.334C1450.18 244.904 1452.38 231.165 1452.38 215.118C1452.38 199.071 1450.18 185.332 1445.79 173.902C1441.61 162.471 1435.89 153.129 1428.64 145.875C1421.39 138.401 1412.81 133.015 1402.92 129.718C1393.25 126.201 1382.81 124.442 1371.6 124.442H1310.6Z" fill="url(#paint3_linear_2008_2)"/>
<path d="M1671.6 312.388C1686.55 312.388 1700.84 309.86 1714.46 304.804C1728.31 299.529 1741.5 291.066 1754.03 279.415L1770.52 299.199C1757.99 310.849 1742.82 320.082 1725.02 326.896C1707.21 333.711 1688.31 337.118 1668.3 337.118C1647.64 337.118 1628.95 334.48 1612.25 329.204C1595.76 323.929 1581.58 316.125 1569.71 305.794C1558.06 295.462 1549.05 282.713 1542.68 267.545C1536.3 252.377 1533.11 234.902 1533.11 215.118C1533.11 195.334 1536.19 177.858 1542.35 162.691C1548.72 147.523 1557.62 134.774 1569.05 124.442C1580.7 114.111 1594.66 106.307 1610.93 101.031C1627.2 95.7558 1645.22 93.1179 1665 93.1179C1685.01 93.1179 1703.91 96.5251 1721.72 103.34C1739.52 110.154 1754.69 119.386 1767.22 131.037L1750.73 150.821C1738.21 139.17 1725.02 130.817 1711.17 125.761C1697.54 120.485 1683.25 117.848 1668.3 117.848C1656.43 117.848 1645.33 119.826 1635 123.783C1624.67 127.52 1615.77 133.345 1608.29 141.258C1600.82 149.172 1594.88 159.284 1590.49 171.594C1586.31 183.684 1584.22 198.192 1584.22 215.118C1584.22 232.044 1586.31 246.662 1590.49 258.972C1594.88 271.062 1600.93 281.064 1608.62 288.977C1616.53 296.891 1625.77 302.826 1636.32 306.783C1647.09 310.52 1658.85 312.388 1671.6 312.388Z" fill="url(#paint4_linear_2008_2)"/>
<path d="M1922.12 261.28V330.523H1874.31V261.28L1767.14 99.7125H1819.9L1897.39 216.767H1899.04L1976.52 99.7125H2029.28L1922.12 261.28Z" fill="url(#paint5_linear_2008_2)"/>
<path d="M298.108 584.101L295.088 587.36L298.108 590.16L301.13 587.36L298.108 584.101ZM298.108 584.101L301.132 587.358C301.133 587.358 301.133 587.356 301.135 587.354C301.138 587.352 301.142 587.349 301.146 587.344C301.156 587.336 301.169 587.323 301.186 587.307C301.219 587.276 301.268 587.231 301.33 587.173C301.456 587.055 301.639 586.882 301.876 586.656C302.35 586.205 303.04 585.54 303.918 584.679C305.674 582.958 308.183 580.444 311.216 577.259C317.278 570.89 325.455 561.814 333.919 550.972C349.428 531.107 366.293 504.823 372.441 478.171C395.611 492.723 426.129 499.436 451.152 502.557C464.808 504.261 477.016 504.915 485.812 505.144C490.212 505.259 493.765 505.267 496.227 505.247C497.457 505.237 498.415 505.219 499.07 505.204C499.398 505.196 499.65 505.189 499.822 505.184C499.908 505.182 499.975 505.18 500.021 505.178C500.043 505.178 500.062 505.177 500.074 505.177C500.08 505.176 500.085 505.177 500.089 505.177C500.091 505.176 500.093 505.176 500.094 505.176C500.095 505.168 500.089 504.987 499.935 500.735M298.108 584.101L295.086 587.358C295.085 587.358 295.083 587.356 295.082 587.354C295.079 587.352 295.076 587.349 295.071 587.344C295.062 587.336 295.049 587.323 295.032 587.307C294.998 587.276 294.949 587.23 294.886 587.171C294.759 587.052 294.575 586.878 294.336 586.65C293.858 586.195 293.162 585.527 292.277 584.659C290.508 582.924 287.982 580.39 284.928 577.18C278.823 570.764 270.594 561.621 262.091 550.707C246.523 530.723 229.632 504.297 223.632 477.543C200.45 492.184 169.811 498.884 144.668 501.969C130.935 503.655 118.65 504.283 109.796 504.491C105.367 504.595 101.79 504.594 99.3115 504.566C98.0723 504.552 97.107 504.531 96.4473 504.514C96.1175 504.506 95.8639 504.499 95.6904 504.493C95.604 504.49 95.5374 504.488 95.4912 504.486C95.4681 504.485 95.4493 504.485 95.4365 504.484C95.4304 504.484 95.4256 504.483 95.4219 504.483C95.42 504.483 95.418 504.483 95.417 504.483L95.5889 500.043M298.108 12.1179L301.13 8.85913L298.108 6.05933L295.088 8.85913L298.108 12.1179ZM298.108 12.1179C301.129 8.85933 301.131 8.86003 301.132 8.86108C301.132 8.86169 301.134 8.86288 301.135 8.86401C301.138 8.8666 301.142 8.8704 301.146 8.87476C301.156 8.88347 301.169 8.89614 301.186 8.91187C301.219 8.94341 301.268 8.98922 301.331 9.04858C301.458 9.16742 301.643 9.34154 301.882 9.56909C302.36 10.0241 303.055 10.6928 303.939 11.5603C305.709 13.2957 308.236 15.8279 311.29 19.0378C317.394 25.4539 325.623 34.597 334.126 45.5115C349.694 65.4944 366.584 91.9209 372.585 118.675C395.767 104.034 426.406 97.3353 451.549 94.2498C465.282 92.5644 477.566 91.936 486.42 91.7283C490.849 91.6244 494.427 91.6256 496.905 91.6531C498.144 91.6668 499.109 91.6868 499.769 91.7039C500.098 91.7124 500.352 91.7206 500.525 91.7263C500.612 91.7292 500.679 91.7315 500.726 91.7332C500.749 91.734 500.767 91.7346 500.779 91.7351C500.786 91.7353 500.791 91.735 500.795 91.7351C500.796 91.7352 500.798 91.736 500.799 91.7361C500.8 91.7361 500.801 91.7358 500.632 96.0466L500.802 91.7361L504.918 91.8972L505.067 96.0144L500.627 96.1755C504.998 96.0163 505.067 96.0149 505.068 96.0164V96.0369C505.069 96.0496 505.07 96.0676 505.07 96.0906C505.072 96.1366 505.074 96.2035 505.076 96.2898C505.081 96.4626 505.089 96.7154 505.097 97.0437C505.112 97.7008 505.129 98.6621 505.14 99.8962C505.16 102.365 505.151 105.928 505.035 110.341C504.804 119.161 504.145 131.401 502.433 145.089C499.296 170.158 492.551 200.716 477.935 223.872C504.623 229.964 530.959 246.839 550.868 262.369C561.738 270.848 570.841 279.046 577.228 285.125C580.423 288.166 582.944 290.681 584.671 292.442C585.535 293.323 586.2 294.015 586.653 294.491C586.88 294.729 587.053 294.913 587.171 295.039C587.23 295.102 587.275 295.15 587.307 295.183C587.322 295.2 587.335 295.213 587.344 295.222C587.348 295.227 587.351 295.231 587.354 295.234C587.355 295.236 587.357 295.236 587.357 295.237C587.358 295.238 587.359 295.24 584.101 298.26M298.108 12.1179C295.11 8.88327 295.087 8.86022 295.086 8.86108C295.085 8.86166 295.084 8.86288 295.083 8.86401C295.08 8.86658 295.076 8.87043 295.071 8.87476C295.062 8.88338 295.049 8.89534 295.032 8.91089C294.999 8.94217 294.95 8.98774 294.888 9.04663C294.762 9.16454 294.579 9.33747 294.342 9.56323C293.868 10.0147 293.177 10.6787 292.299 11.5398C290.543 13.2617 288.035 15.7749 285.002 18.9607C278.939 25.329 270.762 34.4054 262.298 45.2468C246.789 65.1122 229.922 91.3964 223.774 118.049C200.605 103.496 170.088 96.784 145.064 93.6628C131.408 91.9595 119.2 91.3043 110.404 91.075C106.004 90.9602 102.45 90.9519 99.9893 90.9724C98.7587 90.9827 97.8005 91.0003 97.1455 91.0154C96.818 91.0229 96.5658 91.0298 96.3936 91.0349C96.3076 91.0375 96.2411 91.0393 96.1953 91.0408C96.1728 91.0415 96.1552 91.0423 96.1426 91.0427C96.1362 91.0429 96.1307 91.0436 96.127 91.0437C96.1251 91.0438 96.123 91.0437 96.1221 91.0437C96.1209 91.0505 96.126 91.2202 96.2812 95.4841M584.101 298.26L587.357 301.283C587.357 301.284 587.355 301.285 587.354 301.287C587.351 301.29 587.348 301.293 587.344 301.298C587.335 301.307 587.322 301.321 587.307 301.338C587.275 301.371 587.229 301.42 587.17 301.483C587.051 301.61 586.877 301.795 586.649 302.034C586.194 302.512 585.524 303.208 584.655 304.094C582.919 305.864 580.384 308.393 577.172 311.449C570.751 317.557 561.601 325.792 550.68 334.299C530.683 349.874 504.239 366.767 477.473 372.752C492.094 395.936 498.784 426.561 501.865 451.689C503.548 465.414 504.176 477.691 504.383 486.539C504.487 490.965 504.485 494.539 504.457 497.015C504.443 498.254 504.423 499.219 504.406 499.878C504.398 500.207 504.39 500.46 504.385 500.634C504.382 500.72 504.38 500.788 504.378 500.834C504.377 500.857 504.376 500.875 504.376 500.887C504.376 500.894 504.375 500.898 504.375 500.902C504.375 500.904 504.375 500.906 504.375 500.907C504.375 500.909 504.375 500.91 499.935 500.735M584.101 298.26L587.359 301.281L590.159 298.26L587.359 295.239L584.101 298.26ZM499.935 500.735L500.097 505.176L504.213 505.026L504.375 500.91L499.935 500.735ZM95.5889 500.043L91.1484 500.202C91.1484 500.201 91.1485 500.199 91.1484 500.197C91.1483 500.193 91.1477 500.188 91.1475 500.182C91.147 500.17 91.1463 500.152 91.1455 500.129C91.144 500.083 91.1422 500.016 91.1396 499.929C91.1345 499.757 91.1277 499.504 91.1201 499.176C91.105 498.518 91.0874 497.557 91.0771 496.323C91.0567 493.855 91.0651 490.291 91.1807 485.879C91.4118 477.058 92.0705 464.818 93.7832 451.131C96.9202 426.062 103.663 395.502 118.28 372.345C91.5922 366.252 65.257 349.379 45.3486 333.849C34.4789 325.37 25.3761 317.173 18.9893 311.094C15.7942 308.054 13.274 305.538 11.5469 303.777C10.6832 302.896 10.0173 302.204 9.56445 301.728C9.33802 301.49 9.16514 301.306 9.04688 301.18C8.98774 301.117 8.94156 301.07 8.91016 301.036C8.89446 301.019 8.8827 301.005 8.87402 300.996C8.86977 300.991 8.86582 300.988 8.86328 300.985C8.86205 300.984 8.86097 300.982 8.86035 300.981C8.86379 300.976 8.98102 300.866 12.1172 297.959M95.5889 500.043L91.1484 500.205L91.2979 504.321L95.4141 504.483L95.5889 500.043ZM12.1172 297.959C8.9642 295.036 8.86266 294.94 8.86035 294.936C8.86098 294.936 8.86203 294.934 8.86328 294.932C8.86583 294.93 8.86975 294.926 8.87402 294.922C8.88275 294.912 8.89535 294.899 8.91113 294.882C8.9427 294.848 8.98852 294.799 9.04785 294.736C9.16678 294.609 9.34065 294.424 9.56836 294.185C10.0238 293.707 10.6932 293.011 11.5615 292.126C13.2983 290.355 15.8326 287.826 19.0449 284.77C25.4658 278.662 34.6154 270.428 45.5371 261.921C65.5334 246.346 91.9763 229.451 118.742 223.467C104.122 200.282 97.4328 169.658 94.3516 144.53C92.6686 130.805 92.0403 118.528 91.833 109.68C91.7293 105.254 91.7313 101.68 91.7588 99.2039C91.7726 97.9655 91.7925 97.0007 91.8096 96.3416C91.8181 96.0122 91.8264 95.759 91.832 95.5857C91.8349 95.499 91.8372 95.4317 91.8389 95.3855C91.8397 95.3626 91.8403 95.3445 91.8408 95.3318V95.3123C91.8409 95.3107 91.8413 95.3095 96.2812 95.4841M12.1172 297.959L8.8584 300.979L6.05859 297.959L8.8584 294.938L12.1172 297.959ZM96.2812 95.4841L91.8418 95.3093L92.0029 91.1931L96.1191 91.0437L96.2812 95.4841Z" stroke="url(#paint6_linear_2008_2)" stroke-width="8.88674"/>
<path d="M298.108 584.101L295.088 587.36L298.108 590.16L301.13 587.36L298.108 584.101ZM298.108 584.101L301.132 587.358C301.133 587.358 301.133 587.356 301.135 587.354C301.138 587.352 301.142 587.349 301.146 587.344C301.156 587.336 301.169 587.323 301.186 587.307C301.219 587.276 301.268 587.231 301.33 587.173C301.456 587.055 301.639 586.882 301.876 586.656C302.35 586.205 303.04 585.54 303.918 584.679C305.674 582.958 308.183 580.444 311.216 577.259C317.278 570.89 325.455 561.814 333.919 550.972C349.428 531.107 366.293 504.823 372.441 478.171C395.611 492.723 426.129 499.436 451.152 502.557C464.808 504.261 477.016 504.915 485.812 505.144C490.212 505.259 493.765 505.267 496.227 505.247C497.457 505.237 498.415 505.219 499.07 505.204C499.398 505.196 499.65 505.189 499.822 505.184C499.908 505.182 499.975 505.18 500.021 505.178C500.043 505.178 500.062 505.177 500.074 505.177C500.08 505.176 500.085 505.177 500.089 505.177C500.091 505.176 500.093 505.176 500.094 505.176C500.095 505.168 500.089 504.987 499.935 500.735M298.108 584.101L295.086 587.358C295.085 587.358 295.083 587.356 295.082 587.354C295.079 587.352 295.076 587.349 295.071 587.344C295.062 587.336 295.049 587.323 295.032 587.307C294.998 587.276 294.949 587.23 294.886 587.171C294.759 587.052 294.575 586.878 294.336 586.65C293.858 586.195 293.162 585.527 292.277 584.659C290.508 582.924 287.982 580.39 284.928 577.18C278.823 570.764 270.594 561.621 262.091 550.707C246.523 530.723 229.632 504.297 223.632 477.543C200.45 492.184 169.811 498.884 144.668 501.969C130.935 503.655 118.65 504.283 109.796 504.491C105.367 504.595 101.79 504.594 99.3115 504.566C98.0723 504.552 97.107 504.531 96.4473 504.514C96.1175 504.506 95.8639 504.499 95.6904 504.493C95.604 504.49 95.5374 504.488 95.4912 504.486C95.4681 504.485 95.4493 504.485 95.4365 504.484C95.4304 504.484 95.4256 504.483 95.4219 504.483C95.42 504.483 95.418 504.483 95.417 504.483L95.5889 500.043M298.108 12.1179L301.13 8.85913L298.108 6.05933L295.088 8.85913L298.108 12.1179ZM298.108 12.1179C301.129 8.85933 301.131 8.86003 301.132 8.86108C301.132 8.86169 301.134 8.86288 301.135 8.86401C301.138 8.8666 301.142 8.8704 301.146 8.87476C301.156 8.88347 301.169 8.89614 301.186 8.91187C301.219 8.94341 301.268 8.98922 301.331 9.04858C301.458 9.16742 301.643 9.34154 301.882 9.56909C302.36 10.0241 303.055 10.6928 303.939 11.5603C305.709 13.2957 308.236 15.8279 311.29 19.0378C317.394 25.4539 325.623 34.597 334.126 45.5115C349.694 65.4944 366.584 91.9209 372.585 118.675C395.767 104.034 426.406 97.3353 451.549 94.2498C465.282 92.5644 477.566 91.936 486.42 91.7283C490.849 91.6244 494.427 91.6256 496.905 91.6531C498.144 91.6668 499.109 91.6868 499.769 91.7039C500.098 91.7124 500.352 91.7206 500.525 91.7263C500.612 91.7292 500.679 91.7315 500.726 91.7332C500.749 91.734 500.767 91.7346 500.779 91.7351C500.786 91.7353 500.791 91.735 500.795 91.7351C500.796 91.7352 500.798 91.736 500.799 91.7361C500.8 91.7361 500.801 91.7358 500.632 96.0466L500.802 91.7361L504.918 91.8972L505.067 96.0144L500.627 96.1755C504.998 96.0163 505.067 96.0149 505.068 96.0164V96.0369C505.069 96.0496 505.07 96.0676 505.07 96.0906C505.072 96.1366 505.074 96.2035 505.076 96.2898C505.081 96.4626 505.089 96.7154 505.097 97.0437C505.112 97.7008 505.129 98.6621 505.14 99.8962C505.16 102.365 505.151 105.928 505.035 110.341C504.804 119.161 504.145 131.401 502.433 145.089C499.296 170.158 492.551 200.716 477.935 223.872C504.623 229.964 530.959 246.839 550.868 262.369C561.738 270.848 570.841 279.046 577.228 285.125C580.423 288.166 582.944 290.681 584.671 292.442C585.535 293.323 586.2 294.015 586.653 294.491C586.88 294.729 587.053 294.913 587.171 295.039C587.23 295.102 587.275 295.15 587.307 295.183C587.322 295.2 587.335 295.213 587.344 295.222C587.348 295.227 587.351 295.231 587.354 295.234C587.355 295.236 587.357 295.236 587.357 295.237C587.358 295.238 587.359 295.24 584.101 298.26M298.108 12.1179C295.11 8.88327 295.087 8.86022 295.086 8.86108C295.085 8.86166 295.084 8.86288 295.083 8.86401C295.08 8.86658 295.076 8.87043 295.071 8.87476C295.062 8.88338 295.049 8.89534 295.032 8.91089C294.999 8.94217 294.95 8.98774 294.888 9.04663C294.762 9.16454 294.579 9.33747 294.342 9.56323C293.868 10.0147 293.177 10.6787 292.299 11.5398C290.543 13.2617 288.035 15.7749 285.002 18.9607C278.939 25.329 270.762 34.4054 262.298 45.2468C246.789 65.1122 229.922 91.3964 223.774 118.049C200.605 103.496 170.088 96.784 145.064 93.6628C131.408 91.9595 119.2 91.3043 110.404 91.075C106.004 90.9602 102.45 90.9519 99.9893 90.9724C98.7587 90.9827 97.8005 91.0003 97.1455 91.0154C96.818 91.0229 96.5658 91.0298 96.3936 91.0349C96.3076 91.0375 96.2411 91.0393 96.1953 91.0408C96.1728 91.0415 96.1552 91.0423 96.1426 91.0427C96.1362 91.0429 96.1307 91.0436 96.127 91.0437C96.1251 91.0438 96.123 91.0437 96.1221 91.0437C96.1209 91.0505 96.126 91.2202 96.2812 95.4841M584.101 298.26L587.357 301.283C587.357 301.284 587.355 301.285 587.354 301.287C587.351 301.29 587.348 301.293 587.344 301.298C587.335 301.307 587.322 301.321 587.307 301.338C587.275 301.371 587.229 301.42 587.17 301.483C587.051 301.61 586.877 301.795 586.649 302.034C586.194 302.512 585.524 303.208 584.655 304.094C582.919 305.864 580.384 308.393 577.172 311.449C570.751 317.557 561.601 325.792 550.68 334.299C530.683 349.874 504.239 366.767 477.473 372.752C492.094 395.936 498.784 426.561 501.865 451.689C503.548 465.414 504.176 477.691 504.383 486.539C504.487 490.965 504.485 494.539 504.457 497.015C504.443 498.254 504.423 499.219 504.406 499.878C504.398 500.207 504.39 500.46 504.385 500.634C504.382 500.72 504.38 500.788 504.378 500.834C504.377 500.857 504.376 500.875 504.376 500.887C504.376 500.894 504.375 500.898 504.375 500.902C504.375 500.904 504.375 500.906 504.375 500.907C504.375 500.909 504.375 500.91 499.935 500.735M584.101 298.26L587.359 301.281L590.159 298.26L587.359 295.239L584.101 298.26ZM499.935 500.735L500.097 505.176L504.213 505.026L504.375 500.91L499.935 500.735ZM95.5889 500.043L91.1484 500.202C91.1484 500.201 91.1485 500.199 91.1484 500.197C91.1483 500.193 91.1477 500.188 91.1475 500.182C91.147 500.17 91.1463 500.152 91.1455 500.129C91.144 500.083 91.1422 500.016 91.1396 499.929C91.1345 499.757 91.1277 499.504 91.1201 499.176C91.105 498.518 91.0874 497.557 91.0771 496.323C91.0567 493.855 91.0651 490.291 91.1807 485.879C91.4118 477.058 92.0705 464.818 93.7832 451.131C96.9202 426.062 103.663 395.502 118.28 372.345C91.5922 366.252 65.257 349.379 45.3486 333.849C34.4789 325.37 25.3761 317.173 18.9893 311.094C15.7942 308.054 13.274 305.538 11.5469 303.777C10.6832 302.896 10.0173 302.204 9.56445 301.728C9.33802 301.49 9.16514 301.306 9.04688 301.18C8.98774 301.117 8.94156 301.07 8.91016 301.036C8.89446 301.019 8.8827 301.005 8.87402 300.996C8.86977 300.991 8.86582 300.988 8.86328 300.985C8.86205 300.984 8.86097 300.982 8.86035 300.981C8.86379 300.976 8.98102 300.866 12.1172 297.959M95.5889 500.043L91.1484 500.205L91.2979 504.321L95.4141 504.483L95.5889 500.043ZM12.1172 297.959C8.9642 295.036 8.86266 294.94 8.86035 294.936C8.86098 294.936 8.86203 294.934 8.86328 294.932C8.86583 294.93 8.86975 294.926 8.87402 294.922C8.88275 294.912 8.89535 294.899 8.91113 294.882C8.9427 294.848 8.98852 294.799 9.04785 294.736C9.16678 294.609 9.34065 294.424 9.56836 294.185C10.0238 293.707 10.6932 293.011 11.5615 292.126C13.2983 290.355 15.8326 287.826 19.0449 284.77C25.4658 278.662 34.6154 270.428 45.5371 261.921C65.5334 246.346 91.9763 229.451 118.742 223.467C104.122 200.282 97.4328 169.658 94.3516 144.53C92.6686 130.805 92.0403 118.528 91.833 109.68C91.7293 105.254 91.7313 101.68 91.7588 99.2039C91.7726 97.9655 91.7925 97.0007 91.8096 96.3416C91.8181 96.0122 91.8264 95.759 91.832 95.5857C91.8349 95.499 91.8372 95.4317 91.8389 95.3855C91.8397 95.3626 91.8403 95.3445 91.8408 95.3318V95.3123C91.8409 95.3107 91.8413 95.3095 96.2812 95.4841M12.1172 297.959L8.8584 300.979L6.05859 297.959L8.8584 294.938L12.1172 297.959ZM96.2812 95.4841L91.8418 95.3093L92.0029 91.1931L96.1191 91.0437L96.2812 95.4841Z" stroke="url(#paint7_linear_2008_2)" stroke-width="8.88674"/>
<path d="M232.275 454.845L228.451 456.565L230.045 460.109L233.699 458.789L232.275 454.845ZM232.275 454.845L233.702 458.788C233.703 458.787 233.704 458.787 233.706 458.787C233.708 458.786 233.711 458.785 233.714 458.783C233.722 458.781 233.733 458.777 233.747 458.772C233.774 458.762 233.813 458.748 233.862 458.729C233.962 458.693 234.105 458.639 234.29 458.569C234.66 458.43 235.199 458.225 235.886 457.954C237.259 457.414 239.23 456.614 241.643 455.567C246.467 453.475 253.086 450.385 260.278 446.389C272.841 439.409 287.631 429.403 297.419 416.777C306.979 429.584 321.597 439.857 334.042 447.063C341.166 451.189 347.735 454.397 352.524 456.575C354.92 457.665 356.877 458.5 358.242 459.065C358.924 459.347 359.459 459.562 359.828 459.708C360.012 459.781 360.154 459.837 360.253 459.876C360.302 459.895 360.341 459.91 360.368 459.92C360.381 459.925 360.392 459.93 360.4 459.933L360.412 459.938C360.413 459.938 360.415 459.936 361.909 456.021M232.275 454.845L228.45 456.562C228.45 456.562 228.449 456.561 228.449 456.56C228.448 456.557 228.446 456.554 228.444 456.55C228.441 456.543 228.436 456.531 228.431 456.518C228.419 456.491 228.402 456.454 228.381 456.406C228.338 456.308 228.275 456.167 228.196 455.984C228.037 455.618 227.809 455.084 227.523 454.397C226.952 453.024 226.15 451.038 225.217 448.557C223.353 443.601 220.956 436.647 218.82 428.65C215.092 414.698 212.011 397.035 214.365 381.193C198.485 383.268 180.878 379.877 166.995 375.905C159.037 373.628 152.126 371.109 147.203 369.158C144.739 368.181 142.768 367.345 141.405 366.75C140.723 366.452 140.193 366.214 139.83 366.048C139.648 365.966 139.508 365.901 139.412 365.856C139.364 365.834 139.326 365.817 139.3 365.805C139.287 365.799 139.276 365.794 139.268 365.79C139.264 365.789 139.262 365.787 139.259 365.786C139.258 365.785 139.256 365.784 139.256 365.784L141.04 361.99M364.755 142.181L368.578 140.462L366.985 136.917L363.329 138.238L364.755 142.181ZM364.755 142.181C368.531 140.483 368.578 140.463 368.579 140.464L368.584 140.476C368.588 140.484 368.593 140.495 368.599 140.508C368.611 140.534 368.628 140.573 368.649 140.621C368.692 140.719 368.754 140.86 368.833 141.043C368.992 141.409 369.22 141.943 369.506 142.629C370.077 144.003 370.879 145.989 371.812 148.469C373.676 153.426 376.073 160.379 378.21 168.376C381.937 182.327 385.018 199.99 382.664 215.831C398.544 213.756 416.151 217.149 430.035 221.121C437.992 223.398 444.903 225.918 449.826 227.869C452.289 228.845 454.261 229.682 455.624 230.277C456.305 230.575 456.835 230.812 457.198 230.977C457.38 231.059 457.52 231.124 457.617 231.169C457.665 231.191 457.703 231.209 457.729 231.221C457.742 231.227 457.752 231.233 457.76 231.236L457.773 231.241C457.774 231.242 457.775 231.243 456.043 234.921L457.775 231.243L461.291 232.899L459.906 236.53L455.989 235.036C459.753 236.471 459.9 236.528 459.905 236.532C459.905 236.532 459.904 236.534 459.903 236.535C459.903 236.538 459.902 236.541 459.901 236.545C459.898 236.552 459.893 236.563 459.888 236.576C459.878 236.603 459.863 236.642 459.844 236.691C459.805 236.79 459.749 236.934 459.675 237.118C459.529 237.488 459.314 238.024 459.03 238.709C458.464 240.077 457.626 242.04 456.532 244.443C454.348 249.246 451.13 255.831 446.992 262.971C439.769 275.434 429.471 290.065 416.635 299.607C429.291 309.378 439.321 324.182 446.318 336.763C450.327 343.971 453.426 350.608 455.524 355.445C456.574 357.865 457.376 359.841 457.918 361.218C458.189 361.907 458.396 362.446 458.536 362.818C458.605 363.004 458.658 363.148 458.695 363.247C458.714 363.297 458.728 363.336 458.738 363.363C458.743 363.377 458.747 363.388 458.75 363.396C458.751 363.4 458.752 363.403 458.753 363.406C458.754 363.407 458.754 363.408 458.754 363.408C458.755 363.409 458.755 363.41 454.812 364.835M364.755 142.181C363.383 138.385 363.331 138.243 363.328 138.239C363.327 138.239 363.325 138.24 363.324 138.24C363.322 138.241 363.318 138.242 363.314 138.243C363.307 138.246 363.296 138.251 363.283 138.255C363.256 138.265 363.217 138.279 363.167 138.298C363.068 138.334 362.924 138.387 362.739 138.457C362.369 138.596 361.83 138.802 361.143 139.072C359.77 139.613 357.8 140.412 355.387 141.459C350.563 143.551 343.944 146.64 336.751 150.637C324.189 157.617 309.398 167.623 299.61 180.249C290.05 167.442 275.432 157.169 262.987 149.964C255.863 145.838 249.294 142.63 244.505 140.451C242.108 139.361 240.152 138.527 238.787 137.962C238.104 137.679 237.569 137.463 237.201 137.317C237.017 137.244 236.874 137.189 236.776 137.151C236.727 137.132 236.688 137.116 236.661 137.106C236.648 137.101 236.637 137.097 236.629 137.094L236.617 137.089C236.615 137.088 236.614 137.088 235.121 141.005M454.812 364.835C456.531 368.659 456.53 368.66 456.529 368.66C456.528 368.661 456.527 368.661 456.526 368.661C456.524 368.662 456.521 368.664 456.517 368.666C456.509 368.669 456.498 368.674 456.485 368.68C456.458 368.692 456.421 368.708 456.372 368.73C456.275 368.773 456.133 368.835 455.95 368.915C455.584 369.073 455.049 369.302 454.362 369.587C452.988 370.159 451 370.961 448.518 371.895C443.558 373.76 436.599 376.16 428.597 378.296C414.637 382.024 396.963 385.103 381.118 382.738C383.182 398.614 379.789 416.21 375.818 430.085C373.541 438.038 371.023 444.944 369.073 449.863C368.097 452.325 367.261 454.296 366.667 455.658C366.369 456.339 366.132 456.868 365.967 457.231C365.884 457.413 365.82 457.553 365.775 457.649C365.753 457.697 365.736 457.735 365.723 457.761C365.717 457.774 365.711 457.785 365.708 457.793L365.702 457.805C365.701 457.806 365.637 457.776 361.909 456.021M454.812 364.835L456.532 368.659L460.076 367.065L458.755 363.411L454.812 364.835ZM361.909 456.021L360.414 459.938L364.045 461.323L365.702 457.807L361.909 456.021ZM141.04 361.99L137.123 360.494L137.129 360.481C137.132 360.473 137.136 360.463 137.141 360.449C137.152 360.422 137.166 360.384 137.186 360.335C137.224 360.236 137.279 360.092 137.353 359.908C137.499 359.538 137.716 359.002 137.999 358.317C138.566 356.948 139.403 354.986 140.496 352.583C142.681 347.781 145.9 341.195 150.037 334.055C157.261 321.592 167.557 306.961 180.393 297.419C167.738 287.647 157.708 272.844 150.711 260.262C146.703 253.055 143.604 246.419 141.506 241.582C140.456 239.162 139.653 237.186 139.111 235.809C138.84 235.12 138.634 234.579 138.494 234.208C138.424 234.022 138.371 233.878 138.334 233.778C138.316 233.729 138.302 233.69 138.292 233.663C138.287 233.65 138.283 233.639 138.28 233.631C138.278 233.628 138.277 233.624 138.276 233.621C138.276 233.62 138.275 233.618 138.275 233.618C138.278 233.615 138.399 233.571 142.217 232.191M141.04 361.99L137.122 360.496L135.737 364.128L139.254 365.783L141.04 361.99ZM142.217 232.191C140.531 228.44 140.499 228.368 140.5 228.366L140.513 228.361C140.52 228.358 140.531 228.353 140.544 228.347C140.571 228.335 140.609 228.318 140.658 228.297C140.755 228.253 140.897 228.192 141.079 228.112C141.446 227.954 141.98 227.724 142.668 227.438C144.042 226.867 146.03 226.065 148.512 225.131C153.472 223.266 160.43 220.867 168.432 218.73C182.392 215.002 200.065 211.923 215.911 214.287C213.847 198.411 217.239 180.815 221.211 166.94C223.487 158.987 226.006 152.082 227.955 147.162C228.931 144.701 229.766 142.73 230.361 141.369C230.659 140.688 230.897 140.158 231.062 139.795C231.144 139.614 231.209 139.474 231.254 139.377C231.276 139.329 231.294 139.291 231.306 139.265C231.312 139.252 231.317 139.241 231.32 139.234C231.322 139.23 231.324 139.227 231.325 139.225C231.325 139.224 231.326 139.222 231.326 139.221C231.332 139.222 231.464 139.283 235.121 141.005M142.217 232.191L138.274 233.616L136.953 229.961L140.498 228.368L142.217 232.191ZM235.121 141.005L231.327 139.219L232.983 135.703L236.614 137.088L235.121 141.005Z" stroke="url(#paint8_linear_2008_2)" stroke-width="8.38472"/>
<path d="M302.995 200.632C304.193 202.667 305.242 204.777 306.099 206.959C312.092 222.203 309.067 241.639 304.936 256.664C304.628 257.785 304.31 258.887 303.99 259.966C307.313 260.451 310.629 261.376 313.858 262.777C317.009 264.144 319.886 265.881 322.462 267.912C323.01 266.984 323.577 266.045 324.162 265.098C332.351 251.841 344.524 236.391 359.768 230.398C361.844 229.582 363.99 228.936 366.181 228.437L371.898 227.134L370.399 232.804C369.824 234.976 369.103 237.097 368.215 239.144C361.695 254.17 345.831 265.798 332.297 273.521C331.345 274.064 330.4 274.589 329.466 275.098C333.578 280.594 336.17 287.105 336.963 293.921C337.956 293.665 338.967 293.414 339.995 293.169C355.154 289.564 374.683 287.219 389.709 293.738C391.826 294.657 393.867 295.757 395.831 297.002L400.753 300.12L395.724 303.061C393.728 304.228 391.66 305.25 389.524 306.09C374.28 312.082 354.844 309.059 339.819 304.928C338.795 304.646 337.788 304.357 336.8 304.065C336.311 307.348 335.391 310.623 334.007 313.813C332.599 317.059 330.797 320.013 328.687 322.648C329.563 323.167 330.449 323.701 331.341 324.252C344.598 332.441 360.048 344.614 366.041 359.858C366.862 361.946 367.51 364.105 368.01 366.308L369.308 372.027L363.64 370.522C361.481 369.949 359.371 369.231 357.336 368.348C342.31 361.828 330.682 345.964 322.959 332.43C322.422 331.489 321.904 330.554 321.4 329.632C315.902 333.667 309.414 336.196 302.631 336.944C302.897 337.973 303.159 339.021 303.413 340.088C307.019 355.247 309.363 374.777 302.844 389.803C301.906 391.965 300.779 394.048 299.502 396.05L296.389 400.93L293.453 395.943C292.254 393.907 291.207 391.797 290.349 389.615C284.356 374.371 287.381 354.935 291.512 339.91C291.811 338.824 292.117 337.757 292.427 336.711C289.242 336.212 286.066 335.305 282.971 333.962C279.688 332.538 276.702 330.71 274.041 328.564C270.366 334.794 265.848 341.556 260.587 347.712C253.934 355.498 245.901 362.551 236.68 366.176L236.551 366.226L236.418 366.267L230.494 368.076L224.398 369.938L226.028 363.775C226.609 361.581 227.355 359.457 228.234 357.43C232.088 348.549 239.171 340.917 246.961 334.627C253.463 329.377 260.617 324.936 267.167 321.377C263.117 315.866 260.581 309.362 259.837 302.56C252.627 304.435 244.375 306.08 236.043 306.691C226.041 307.425 215.635 306.695 206.739 302.835C204.622 301.917 202.581 300.816 200.617 299.572L195.696 296.454L200.724 293.513C202.72 292.345 204.788 291.324 206.925 290.484C216.157 286.855 226.857 286.552 237.043 287.728C245.128 288.662 253.08 290.552 260.037 292.624C260.528 289.355 261.446 286.097 262.822 282.926C264.223 279.696 266.013 276.755 268.11 274.13C267.12 273.547 266.117 272.945 265.107 272.321C251.85 264.132 236.4 251.959 230.407 236.715C229.586 234.628 228.938 232.469 228.438 230.266L227.14 224.547L232.807 226.051C234.967 226.625 237.077 227.343 239.112 228.226C254.138 234.746 265.766 250.61 273.489 264.144C274.087 265.193 274.664 266.233 275.22 267.259C280.675 263.2 287.121 260.635 293.871 259.832C293.587 258.739 293.307 257.622 293.036 256.485C289.431 241.326 287.086 221.797 293.606 206.771C294.543 204.609 295.671 202.526 296.947 200.524L300.059 195.645L302.995 200.632ZM297.368 345.569C294.004 359.199 292.366 374.462 296.652 386.219C301.355 374.623 300.254 359.312 297.368 345.569ZM263.885 331.45C259.654 334.034 255.39 336.941 251.419 340.148C244.469 345.759 238.617 352.124 235.285 359.071C242.521 355.905 249.237 350.073 255.193 343.103C258.368 339.388 261.275 335.408 263.885 331.45ZM331.338 332.667C338.493 344.39 347.908 355.98 358.952 361.287C354.054 350.057 342.807 340.235 331.338 332.667ZM250.656 297.425C246.012 296.289 241.129 295.343 236.229 294.777C227.015 293.713 218.022 294.03 210.51 296.719C217.752 299.606 226.491 300.278 235.523 299.616C240.646 299.24 245.776 298.439 250.656 297.425ZM385.939 299.854C374.454 295.274 359.377 296.325 345.789 299.147C359.267 302.442 374.297 304.022 385.939 299.854ZM237.496 235.286C242.394 246.517 253.642 256.338 265.112 263.906C257.956 252.183 248.54 240.593 237.496 235.286ZM299.796 210.354C295.094 221.95 296.194 237.261 299.08 251.002C302.444 237.373 304.082 222.111 299.796 210.354ZM361.168 237.498C349.941 242.406 340.122 253.658 332.558 265.127C344.283 257.967 355.871 248.547 361.168 237.498Z" stroke="url(#paint9_linear_2008_2)" stroke-width="7.0954"/>
<path d="M329.223 233.274C329.453 234.995 329.559 236.724 329.517 238.447C329.216 250.486 321.609 262.787 314.514 271.782C313.985 272.454 313.454 273.108 312.928 273.747C315.041 275.026 317.023 276.601 318.809 278.474C320.553 280.301 322.005 282.301 323.169 284.414C323.806 283.942 324.458 283.467 325.124 282.993C334.463 276.355 347.127 269.372 359.167 269.672C360.806 269.713 362.444 269.889 364.071 270.177L368.316 270.93L365.679 274.341C364.668 275.648 363.573 276.88 362.386 278.012C353.673 286.325 339.602 289.664 328.226 291.025C327.426 291.12 326.636 291.206 325.859 291.283C327.072 296.183 326.965 301.334 325.553 306.178C326.299 306.288 327.056 306.408 327.822 306.536C339.121 308.429 353.02 312.425 361.333 321.138C362.504 322.366 363.572 323.695 364.547 325.099L366.989 328.619L362.741 329.173C361.055 329.393 359.362 329.494 357.675 329.451C345.635 329.151 333.335 321.545 324.34 314.45C323.727 313.966 323.127 313.482 322.541 313.002C321.271 315.086 319.712 317.042 317.862 318.807C315.98 320.603 313.914 322.087 311.731 323.268C312.177 323.871 312.624 324.487 313.071 325.115C319.709 334.453 326.692 347.117 326.392 359.157C326.351 360.806 326.173 362.453 325.881 364.088L325.125 368.333L321.717 365.693C320.418 364.687 319.194 363.598 318.068 362.418C309.754 353.704 306.415 339.633 305.055 328.258C304.96 327.466 304.876 326.685 304.799 325.916C299.921 327.076 294.803 326.934 289.995 325.501C289.881 326.274 289.758 327.059 289.625 327.854C287.732 339.154 283.735 353.053 275.022 361.366C273.768 362.562 272.409 363.651 270.972 364.642L267.468 367.057L266.905 362.84C266.675 361.118 266.57 359.389 266.613 357.666C266.913 345.626 274.519 333.326 281.614 324.331C282.127 323.681 282.64 323.046 283.149 322.426C281.134 321.177 279.243 319.654 277.53 317.859C275.714 315.955 274.214 313.863 273.025 311.649C268.755 314.818 263.76 318.106 258.436 320.771C251.703 324.142 244.245 326.622 236.963 326.44L236.86 326.438L236.759 326.428L232.229 325.959L227.567 325.476L230.434 321.768C231.455 320.449 232.568 319.223 233.743 318.102C238.893 313.188 245.874 310.045 252.949 308.012C258.855 306.315 264.969 305.352 270.424 304.814C269.256 299.923 269.4 294.792 270.841 289.972C265.421 289.181 259.36 287.935 253.542 285.967C246.557 283.604 239.718 280.133 234.796 274.974C233.625 273.747 232.557 272.418 231.583 271.013L229.14 267.494L233.388 266.94C235.074 266.72 236.767 266.619 238.454 266.662C245.745 266.843 253.079 269.699 259.642 273.408C264.852 276.353 269.699 279.907 273.818 283.3C275.085 281.226 276.639 279.282 278.478 277.527C280.35 275.74 282.404 274.26 284.575 273.081C284.071 272.404 283.564 271.709 283.058 270.998C276.42 261.66 269.437 248.996 269.737 236.956C269.778 235.307 269.956 233.66 270.247 232.025L271.004 227.78L274.412 230.42C275.711 231.426 276.935 232.515 278.061 233.695C286.374 242.409 289.714 256.48 291.074 267.856C291.18 268.738 291.273 269.607 291.356 270.461C296.212 269.271 301.312 269.377 306.113 270.764C306.234 269.942 306.363 269.106 306.505 268.259C308.398 256.959 312.394 243.061 321.108 234.747C322.361 233.551 323.72 232.463 325.158 231.472L328.661 229.056L329.223 233.274ZM283.963 329.838C277.786 338.107 272.312 347.978 271.853 357.168C278.354 350.658 281.987 339.972 283.963 329.838ZM265.32 310.7C261.715 311.24 257.996 311.989 254.39 313.026C248.077 314.839 242.292 317.477 238.049 321.23C243.856 321.155 250.073 319.124 256.101 316.106C259.313 314.498 262.42 312.634 265.32 310.7ZM310.662 330.814C312.157 340.801 315.22 351.344 321.183 358.097C321.077 349.09 316.267 339.22 310.662 330.814ZM266.091 283.869C263.27 281.772 260.233 279.734 257.075 277.95C251.138 274.594 244.957 272.236 239.099 271.909C243.179 275.936 248.906 278.891 255.214 281.025C258.791 282.235 262.495 283.161 266.091 283.869ZM357.031 324.203C350.561 317.816 340.048 314.217 330.038 312.242C338.224 318.328 347.953 323.697 357.031 324.203ZM274.946 238.015C275.052 247.023 279.863 256.893 285.468 265.299C283.974 255.312 280.91 244.768 274.946 238.015ZM324.276 238.944C317.774 245.453 314.142 256.14 312.167 266.273C318.343 258.003 323.817 248.133 324.276 238.944ZM358.084 274.881C349.076 274.995 339.208 279.809 330.805 285.414C340.795 283.917 351.337 280.85 358.084 274.881Z" stroke="url(#paint10_linear_2008_2)" stroke-width="5.2169"/>
<defs>
<linearGradient id="paint0_linear_2008_2" x1="674.117" y1="461.618" x2="2021.12" y2="461.618" gradientUnits="userSpaceOnUse">
<stop stop-color="#D4B888"/>
<stop offset="0.533654" stop-color="#CCAC7B"/>
<stop offset="1" stop-color="#A48D69"/>
</linearGradient>
<linearGradient id="paint1_linear_2008_2" x1="666.117" y1="215.118" x2="2029.28" y2="215.118" gradientUnits="userSpaceOnUse">
<stop stop-color="#0D8A9E"/>
<stop offset="1" stop-color="#12B2C1"/>
</linearGradient>
<linearGradient id="paint2_linear_2008_2" x1="666.117" y1="215.118" x2="2029.28" y2="215.118" gradientUnits="userSpaceOnUse">
<stop stop-color="#0D8A9E"/>
<stop offset="1" stop-color="#12B2C1"/>
</linearGradient>
<linearGradient id="paint3_linear_2008_2" x1="666.117" y1="215.118" x2="2029.28" y2="215.118" gradientUnits="userSpaceOnUse">
<stop stop-color="#0D8A9E"/>
<stop offset="1" stop-color="#12B2C1"/>
</linearGradient>
<linearGradient id="paint4_linear_2008_2" x1="666.117" y1="215.118" x2="2029.28" y2="215.118" gradientUnits="userSpaceOnUse">
<stop stop-color="#0D8A9E"/>
<stop offset="1" stop-color="#12B2C1"/>
</linearGradient>
<linearGradient id="paint5_linear_2008_2" x1="666.117" y1="215.118" x2="2029.28" y2="215.118" gradientUnits="userSpaceOnUse">
<stop stop-color="#0D8A9E"/>
<stop offset="1" stop-color="#12B2C1"/>
</linearGradient>
<linearGradient id="paint6_linear_2008_2" x1="298.109" y1="12.1179" x2="298.109" y2="584.101" gradientUnits="userSpaceOnUse">
<stop stop-color="#23717B"/>
<stop offset="1" stop-color="#12B2C1"/>
</linearGradient>
<linearGradient id="paint7_linear_2008_2" x1="298.109" y1="12.1179" x2="298.109" y2="584.101" gradientUnits="userSpaceOnUse">
<stop stop-color="#23717B"/>
<stop offset="1" stop-color="#12B2C1"/>
</linearGradient>
<linearGradient id="paint8_linear_2008_2" x1="364.754" y1="142.181" x2="232.275" y2="454.846" gradientUnits="userSpaceOnUse">
<stop stop-color="#0D8A9E"/>
<stop offset="1" stop-color="#12B2C1"/>
</linearGradient>
<linearGradient id="paint9_linear_2008_2" x1="363.617" y1="129.618" x2="262.95" y2="379.581" gradientUnits="userSpaceOnUse">
<stop stop-color="#D4B888"/>
<stop offset="0.466346" stop-color="#CCAC7B"/>
<stop offset="0.966346" stop-color="#A18761"/>
</linearGradient>
<linearGradient id="paint10_linear_2008_2" x1="375.117" y1="224.618" x2="250.923" y2="343.034" gradientUnits="userSpaceOnUse">
<stop stop-color="#D4B888"/>
<stop offset="0.466346" stop-color="#CCAC7B"/>
<stop offset="0.966346" stop-color="#A18761"/>
</linearGradient>
</defs>
</svg>
